<svg version="1.1" id="Layer_1" xmlns="http://www.w3.org/2000/svg" xmlns:xlink="http://www.w3.org/1999/xlink" x="0px" y="0px"
	 viewBox="0 0 612 792" style="enable-background:new 0 0 612 792;" xml:space="preserve">
<style type="text/css">
	.st0{fill:#030000;}
</style>
<path class="st0" d="M241.67,438.78H204.5c0,5.88,0.7,48,36.43,72.63c20.87,14.39,45.71,17.3,54.09,17.92
	c15.67,1.16,32.87-1.29,34.63-1.55c2.18-0.32,8.83-1.34,14.55-2.79c31.77-8.07,49.18-31.32,49.18-31.32
	c2.75-3.84,6.19-9.37,8.99-16.44c1.75-4.4,6.12-16.68,4.93-32.9c-0.7-9.54-1.52-20.75-9.63-31.77c-0.19-0.26-0.43-0.58-0.74-0.97
	c-9.91-12.51-24.17-18.06-30.24-20.26c-19.42-7.04-37.8-10.7-61.04-16.44c-34.69-8.56-40.66-11.99-45.47-17.44
	c-6.99-7.92-11.76-20.33-8.47-32.8c2.59-9.81,9-15.9,11.51-18.22c16.25-15.03,39.73-13.96,44.94-13.72
	c5.76,0.26,18.77,0.86,31.14,8.73c22.6,14.37,23.22,40.37,23.24,43.68c12.35,0,24.71,0,37.06,0c0.27-6.36,1.07-40.78-26.32-62.33
	c-14.16-11.14-31.21-15.18-39.14-17.06c-19.53-4.63-35.45-3.35-40.87-2.79c-9.19,0.95-34.34,3.57-53.68,19.54
	c-27.92,23.05-35.84,67.38-15.93,92.1c15.27,18.97,47,26.25,59.57,29.15c3.9,0.9,17.61,3.88,36.28,8.99
	c15.97,4.38,20.88,6.29,26.06,9.3c6.01,3.5,17.42,10.15,21.98,22.37c4.34,11.65,0.96,24.21-4.66,32.21
	c-17.08,24.28-72.63,31.7-101.79,7.06C242.86,468.25,241.7,445.98,241.67,438.78z"/>
</svg>
